<?xml version="1.0" encoding="UTF-8"?>
<!DOCTYPE svg PUBLIC "-//W3C//DTD SVG 1.1//EN" "http://www.w3.org/Graphics/SVG/1.1/DTD/svg11.dtd">
<svg xmlns="http://www.w3.org/2000/svg" version="1.1" width="573px" height="375px" style="shape-rendering:geometricPrecision; text-rendering:geometricPrecision; image-rendering:optimizeQuality; fill-rule:evenodd; clip-rule:evenodd" xmlns:xlink="http://www.w3.org/1999/xlink">
<g><path style="opacity:0.104" fill="#cccccc" d="M 260.5,32.5 C 272.197,32.3068 283.864,32.8068 295.5,34C 298.104,34.3903 300.438,35.2237 302.5,36.5C 288.425,34.4431 274.425,33.1097 260.5,32.5 Z"/></g>
<g><path style="opacity:0.925" fill="#5c5c5c" d="M 96.5,82.5 C 95.0892,84.914 93.0892,86.5806 90.5,87.5C 91.9108,85.086 93.9108,83.4194 96.5,82.5 Z"/></g>
<g><path style="opacity:0.376" fill="#e5e5e5" d="M 437.5,89.5 C 442.665,91.3375 446.999,94.3375 450.5,98.5C 445.886,95.8827 441.553,92.8827 437.5,89.5 Z"/></g>
<g><path style="opacity:0.608" fill="#878787" d="M 68.5,109.5 C 68.573,111.027 67.9063,112.027 66.5,112.5C 66.427,110.973 67.0937,109.973 68.5,109.5 Z"/></g>
<g><path style="opacity:0.745" fill="#b8b8b8" d="M 480.5,123.5 C 482.914,124.911 484.581,126.911 485.5,129.5C 483.086,128.089 481.419,126.089 480.5,123.5 Z"/></g>
<g><path style="opacity:0.702" fill="#c4c4c4" d="M 485.5,129.5 C 487.262,130.262 488.262,131.596 488.5,133.5C 486.738,132.738 485.738,131.404 485.5,129.5 Z"/></g>
<g><path style="opacity:0.824" fill="#ababab" d="M 488.5,133.5 C 489.906,133.973 490.573,134.973 490.5,136.5C 489.094,136.027 488.427,135.027 488.5,133.5 Z"/></g>
<g><path style="opacity:0.753" fill="#a2a2a2" d="M 500.5,150.5 C 502.262,151.262 503.262,152.596 503.5,154.5C 501.738,153.738 500.738,152.404 500.5,150.5 Z"/></g>
<g><path style="opacity:1" fill="#c0c0c0" d="M 42.5,181.5 C 43.3777,185.336 44.0443,189.336 44.5,193.5C 41.6854,189.789 41.0187,185.789 42.5,181.5 Z"/></g>
<g><path style="opacity:0.49" fill="#dddddd" d="M 515.5,202.5 C 517.174,209.058 516.508,215.391 513.5,221.5C 514.687,215.227 515.354,208.894 515.5,202.5 Z"/></g>
<g><path style="opacity:0.545" fill="#bdbdbd" d="M 50.5,211.5 C 51.9313,212.78 52.5979,214.447 52.5,216.5C 51.0687,215.22 50.4021,213.553 50.5,211.5 Z"/></g>
<g><path style="opacity:0.122" fill="#e0e0e0" d="M 52.5,216.5 C 54.0075,218.181 55.0075,220.181 55.5,222.5C 53.461,221.089 52.461,219.089 52.5,216.5 Z"/></g>
<g><path style="opacity:0.059" fill="#d3d3d3" d="M 55.5,222.5 C 56.9063,222.973 57.573,223.973 57.5,225.5C 56.0937,225.027 55.427,224.027 55.5,222.5 Z"/></g>
<g><path style="opacity:0.337" fill="#d3d3d3" d="M 120.5,275.5 C 123.331,276.079 125.664,277.412 127.5,279.5C 124.669,278.921 122.336,277.588 120.5,275.5 Z"/></g>
<g><path style="opacity:0.965" fill="#121212" d="M 260.5,32.5 C 274.425,33.1097 288.425,34.4431 302.5,36.5C 317.892,40.0148 333.226,43.8481 348.5,48C 379.077,60.0187 408.744,73.852 437.5,89.5C 441.553,92.8827 445.886,95.8827 450.5,98.5C 460.5,106.833 470.5,115.167 480.5,123.5C 481.419,126.089 483.086,128.089 485.5,129.5C 485.738,131.404 486.738,132.738 488.5,133.5C 488.427,135.027 489.094,136.027 490.5,136.5C 494.321,140.806 497.655,145.473 500.5,150.5C 500.738,152.404 501.738,153.738 503.5,154.5C 506.934,161.945 510.1,169.612 513,177.5C 514.625,185.749 515.458,194.082 515.5,202.5C 515.354,208.894 514.687,215.227 513.5,221.5C 509.092,238.652 503.259,255.319 496,271.5C 490.632,279.595 484.798,287.261 478.5,294.5C 476.5,295.833 474.833,297.5 473.5,299.5C 458.928,310.616 442.595,318.282 424.5,322.5C 421.572,322.565 418.905,323.232 416.5,324.5C 338.585,342.35 262.252,337.017 187.5,308.5C 186.22,307.069 184.553,306.402 182.5,306.5C 163.974,297.737 145.641,288.737 127.5,279.5C 125.664,277.412 123.331,276.079 120.5,275.5C 111.057,270.275 101.724,264.775 92.5,259C 83.8333,251.667 75.1667,244.333 66.5,237C 63.2854,233.291 60.2854,229.458 57.5,225.5C 57.573,223.973 56.9063,222.973 55.5,222.5C 55.0075,220.181 54.0075,218.181 52.5,216.5C 52.5979,214.447 51.9313,212.78 50.5,211.5C 47.928,205.784 45.928,199.784 44.5,193.5C 44.0443,189.336 43.3777,185.336 42.5,181.5C 42.7999,169.792 44.6332,158.125 48,146.5C 53.9409,134.945 60.1075,123.612 66.5,112.5C 67.9063,112.027 68.573,111.027 68.5,109.5C 74.8544,101.146 82.1878,93.8122 90.5,87.5C 93.0892,86.5806 95.0892,84.914 96.5,82.5C 105.399,73.7729 115.065,65.9396 125.5,59C 140.833,52.6667 156.167,46.3333 171.5,40C 186.125,37.1181 200.791,34.4514 215.5,32C 230.51,31.3827 245.51,31.5494 260.5,32.5 Z"/></g>
<g><path style="opacity:1" fill="#fbfbfb" d="M 219.5,37.5 C 240.135,38.8183 260.802,39.6516 281.5,40C 301.736,43.3024 321.736,47.6357 341.5,53C 360.833,61 380.167,69 399.5,77C 423.668,88.5773 446.001,102.911 466.5,120C 485.715,137.934 499.215,159.434 507,184.5C 507.826,200.623 506.826,216.623 504,232.5C 500.084,246.673 494.751,260.34 488,273.5C 473.127,294.362 453.294,308.195 428.5,315C 391.502,324.724 353.836,329.224 315.5,328.5C 292.527,328.671 269.86,326.171 247.5,321C 229.306,315.951 211.306,310.285 193.5,304C 182.402,298.45 171.068,293.45 159.5,289C 141.755,278.795 123.755,269.129 105.5,260C 97.4553,252.953 89.1219,246.287 80.5,240C 50.5028,211.85 43.0028,178.683 58,140.5C 64.5147,128.649 71.8481,117.316 80,106.5C 90.637,96.7734 101.137,86.9401 111.5,77C 130.025,63.2373 150.358,52.9039 172.5,46C 175.275,45.2217 177.775,45.7217 180,47.5C 192.658,41.8773 205.825,38.544 219.5,37.5 Z"/></g>
<g><path style="opacity:1" fill="#151515" d="M 287.5,267.5 C 288.675,267.281 289.675,267.614 290.5,268.5C 291.414,270.664 292.581,272.664 294,274.5C 295.48,281.55 292.647,284.05 285.5,282C 282.479,276.646 283.146,271.813 287.5,267.5 Z"/></g>
<g><path style="opacity:1" fill="#dddddd" d="M 287.5,273.5 C 291.765,274.899 292.432,277.232 289.5,280.5C 286.497,278.822 285.831,276.489 287.5,273.5 Z"/></g>
<g><path style="opacity:1" fill="#1a1a1a" d="M 403.5,255.5 C 404.5,255.5 405.5,255.5 406.5,255.5C 406.666,259.514 406.499,263.514 406,267.5C 401.501,271.9 398.001,271.233 395.5,265.5C 397.079,261.258 399.746,257.925 403.5,255.5 Z"/></g>
<g><path style="opacity:1" fill="#e4e4e4" d="M 402.5,260.5 C 403.622,262.288 403.789,264.288 403,266.5C 401.989,267.337 400.822,267.67 399.5,267.5C 399.15,264.547 400.15,262.213 402.5,260.5 Z"/></g>
<g><path style="opacity:1" fill="#161616" d="M 246.5,255.5 C 249.119,255.232 251.619,255.565 254,256.5C 256.055,266.111 252.221,270.278 242.5,269C 240.718,266.757 240.218,264.257 241,261.5C 243.04,259.63 244.873,257.63 246.5,255.5 Z"/></g>
<g><path style="opacity:1" fill="#f0f0f0" d="M 248.5,257.5 C 251.244,258.072 252.077,259.738 251,262.5C 249.974,265.693 247.808,267.026 244.5,266.5C 244.34,264.801 244.506,263.134 245,261.5C 246.376,260.295 247.542,258.962 248.5,257.5 Z"/></g>
<g><path style="opacity:1" fill="#141414" d="M 456.5,250.5 C 462.706,251.558 464.872,255.224 463,261.5C 459.706,264.311 456.706,263.978 454,260.5C 452.861,256.579 453.695,253.246 456.5,250.5 Z"/></g>
<g><path style="opacity:1" fill="#c6c6c6" d="M 456.5,253.5 C 459.855,254.848 460.855,257.181 459.5,260.5C 456.971,258.937 455.971,256.604 456.5,253.5 Z"/></g>
<g><path style="opacity:1" fill="#181818" d="M 263.5,245.5 C 268.674,245.009 271.34,247.342 271.5,252.5C 267.966,265.553 263.966,265.719 259.5,253C 259.994,249.992 261.327,247.492 263.5,245.5 Z"/></g>
<g><path style="opacity:1" fill="#ebebeb" d="M 264.5,248.5 C 267.488,248.155 268.821,249.488 268.5,252.5C 266.585,260.459 264.918,260.292 263.5,252C 263.648,250.744 263.982,249.577 264.5,248.5 Z"/></g>
<g><path style="opacity:1" fill="#181818" d="M 415.5,238.5 C 418.617,238.642 421.117,239.976 423,242.5C 423.498,245.817 423.665,249.15 423.5,252.5C 417.532,252.034 413.865,248.867 412.5,243C 412.557,240.791 413.557,239.291 415.5,238.5 Z"/></g>
<g><path style="opacity:1" fill="#dedede" d="M 416.5,241.5 C 419.754,242.673 420.92,245.006 420,248.5C 417.02,246.783 415.853,244.449 416.5,241.5 Z"/></g>
<g><path style="opacity:1" fill="#121212" d="M 374.5,239.5 C 378.626,239.572 382.626,240.239 386.5,241.5C 386.487,247.361 383.487,250.361 377.5,250.5C 372.124,250.301 369.958,247.634 371,242.5C 372.145,241.364 373.312,240.364 374.5,239.5 Z"/></g>
<g><path style="opacity:1" fill="#d4d4d4" d="M 375.5,242.5 C 378.059,242.39 380.392,243.056 382.5,244.5C 380.74,247.021 378.407,247.854 375.5,247C 374.272,245.51 374.272,244.01 375.5,242.5 Z"/></g>
<g><path style="opacity:1" fill="#191919" d="M 356.5,236.5 C 359.315,237.126 361.815,238.46 364,240.5C 365.033,243.217 364.2,245.051 361.5,246C 357.848,246.889 354.182,247.222 350.5,247C 347.689,243.706 348.022,240.706 351.5,238C 353.382,237.802 355.048,237.302 356.5,236.5 Z"/></g>
<g><path style="opacity:1" fill="#e6e6e6" d="M 352.5,240.5 C 363.556,241.172 363.89,242.505 353.5,244.5C 352.571,243.311 352.238,241.978 352.5,240.5 Z"/></g>
<g><path style="opacity:1" fill="#191919" d="M 305.5,235.5 C 309.009,235.808 310.676,237.808 310.5,241.5C 318.302,241.787 320.302,245.287 316.5,252C 313.5,252.667 310.5,252.667 307.5,252C 305.113,249.478 302.28,247.645 299,246.5C 298.333,244.833 298.333,243.167 299,241.5C 301.063,239.266 303.229,237.266 305.5,235.5 Z"/></g>
<g><path style="opacity:1" fill="#e7e7e7" d="M 311.5,243.5 C 312.496,243.414 313.329,243.748 314,244.5C 314.494,246.134 314.66,247.801 314.5,249.5C 312.5,249.5 310.5,249.5 308.5,249.5C 308.615,247.053 309.615,245.053 311.5,243.5 Z"/></g>
<g><path style="opacity:1" fill="#d3d3d3" d="M 304.5,239.5 C 305.5,239.5 306.5,239.5 307.5,239.5C 307.88,242.792 306.547,245.125 303.5,246.5C 302.154,243.9 302.488,241.567 304.5,239.5 Z"/></g>
<g><path style="opacity:1" fill="#151515" d="M 250.5,236.5 C 258.284,236.1 260.784,239.433 258,246.5C 254.287,250.453 249.787,252.786 244.5,253.5C 243.074,246.479 245.074,240.813 250.5,236.5 Z"/></g>
<g><path style="opacity:1" fill="#e5e5e5" d="M 251.5,239.5 C 253.948,239.01 255.615,239.843 256.5,242C 254.652,245.347 251.985,247.847 248.5,249.5C 247.152,245.514 248.152,242.181 251.5,239.5 Z"/></g>
<g><path style="opacity:1" fill="#1b1b1b" d="M 211.5,229.5 C 220.25,229.288 224.25,233.622 223.5,242.5C 216.672,243.325 212.006,240.658 209.5,234.5C 209.902,232.7 210.569,231.033 211.5,229.5 Z"/></g>
<g><path style="opacity:1" fill="#eaeaea" d="M 213.5,232.5 C 217.265,232.676 219.265,234.676 219.5,238.5C 215.167,238.833 213.167,236.833 213.5,232.5 Z"/></g>
<g><path style="opacity:1" fill="#191919" d="M 293.5,219.5 C 296.48,219.241 298.313,220.574 299,223.5C 301.729,230.772 299.229,233.939 291.5,233C 288.566,228.04 289.233,223.54 293.5,219.5 Z"/></g>
<g><path style="opacity:1" fill="#d4d4d4" d="M 294.5,223.5 C 295.117,223.611 295.617,223.944 296,224.5C 296.495,226.473 296.662,228.473 296.5,230.5C 295.167,230.5 293.833,230.5 292.5,230.5C 292.394,227.921 293.061,225.588 294.5,223.5 Z"/></g>
<g><path style="opacity:1" fill="#191919" d="M 484.5,216.5 C 492.914,218.493 495.247,223.326 491.5,231C 486.316,231.152 483.65,228.485 483.5,223C 484.077,220.863 484.41,218.696 484.5,216.5 Z"/></g>
<g><path style="opacity:1" fill="#dadada" d="M 487.5,221.5 C 489.441,223.011 489.941,225.011 489,227.5C 487.681,225.75 487.181,223.75 487.5,221.5 Z"/></g>
<g><path style="opacity:1" fill="#151515" d="M 264.5,213.5 C 270.966,213.805 275.299,216.972 277.5,223C 277.561,224.711 276.894,226.044 275.5,227C 271.726,228.183 268.559,227.349 266,224.5C 264.663,220.974 264.163,217.308 264.5,213.5 Z"/></g>
<g><path style="opacity:1" fill="#dcdcdc" d="M 267.5,215.5 C 272.357,217.136 274.357,220.302 273.5,225C 268.963,223.819 266.963,220.652 267.5,215.5 Z"/></g>
<g><path style="opacity:1" fill="#1e1e1e" d="M 185.5,215.5 C 189.167,215.5 192.833,215.5 196.5,215.5C 195.755,224.784 191.255,227.45 183,223.5C 181.837,220.029 182.67,217.362 185.5,215.5 Z"/></g>
<g><path style="opacity:1" fill="#ececec" d="M 185.5,218.5 C 187.924,218.192 190.257,218.526 192.5,219.5C 190.929,222.093 188.596,223.093 185.5,222.5C 185.5,221.167 185.5,219.833 185.5,218.5 Z"/></g>
<g><path style="opacity:1" fill="#171717" d="M 376.5,213.5 C 380.792,213.035 384.792,213.868 388.5,216C 390.984,218.284 391.151,220.784 389,223.5C 387.274,224.576 385.441,224.743 383.5,224C 379.796,221.342 377.463,217.842 376.5,213.5 Z"/></g>
<g><path style="opacity:1" fill="#e2e2e2" d="M 382.5,216.5 C 385.719,217.021 386.719,218.688 385.5,221.5C 383.738,220.312 382.738,218.645 382.5,216.5 Z"/></g>
<g><path style="opacity:1" fill="#181818" d="M 369.5,212.5 C 370.873,212.343 372.207,212.51 373.5,213C 376.751,216.232 377.918,220.066 377,224.5C 368.478,228.656 365.145,225.99 367,216.5C 368.481,215.529 369.315,214.196 369.5,212.5 Z"/></g>
<g><path style="opacity:1" fill="#f2f2f2" d="M 371.5,216.5 C 373.163,218.438 373.829,220.772 373.5,223.5C 372.5,223.5 371.5,223.5 370.5,223.5C 370.298,221.05 370.631,218.717 371.5,216.5 Z"/></g>
<g><path style="opacity:1" fill="#121212" d="M 207.5,204.5 C 209.451,204.227 210.951,204.893 212,206.5C 212.929,210.244 212.429,213.744 210.5,217C 207.331,217.978 204.497,217.478 202,215.5C 201.333,214.167 201.333,212.833 202,211.5C 203.666,209.004 205.5,206.671 207.5,204.5 Z"/></g>
<g><path style="opacity:1" fill="#d7d7d7" d="M 207.5,208.5 C 208.649,208.791 209.316,209.624 209.5,211C 209.568,213.034 208.734,214.534 207,215.5C 205.72,215.387 204.887,214.72 204.5,213.5C 205.952,212.06 206.952,210.394 207.5,208.5 Z"/></g>
<g><path style="opacity:1" fill="#111111" d="M 232.5,199.5 C 236.693,199.953 240.693,201.119 244.5,203C 248.223,210.778 245.89,213.611 237.5,211.5C 234.728,207.957 233.061,203.957 232.5,199.5 Z"/></g>
<g><path style="opacity:1" fill="#d8d8d8" d="M 236.5,202.5 C 241.145,203.275 243.145,205.775 242.5,210C 241.004,210.507 239.837,210.007 239,208.5C 238.345,206.372 237.511,204.372 236.5,202.5 Z"/></g>
<g><path style="opacity:1" fill="#1d1d1d" d="M 224.5,196.5 C 226.958,196.227 228.625,197.227 229.5,199.5C 228.918,207.257 224.918,210.09 217.5,208C 215.813,206.087 215.313,203.92 216,201.5C 218.531,199.097 221.364,197.43 224.5,196.5 Z"/></g>
<g><path style="opacity:1" fill="#e8e8e8" d="M 221.5,200.5 C 225.955,199.973 226.621,201.473 223.5,205C 222.207,205.49 220.873,205.657 219.5,205.5C 219.392,203.486 220.058,201.82 221.5,200.5 Z"/></g>
<g><path style="opacity:1" fill="#1a1a1a" d="M 368.5,187.5 C 371.518,187.335 374.518,187.502 377.5,188C 380.087,189.525 380.92,191.692 380,194.5C 377.958,196.604 375.458,197.771 372.5,198C 377.314,203.731 375.98,207.231 368.5,208.5C 363.344,207.516 359.844,204.516 358,199.5C 357.506,197.866 357.34,196.199 357.5,194.5C 361.381,192.641 365.048,190.308 368.5,187.5 Z"/></g>
<g><path style="opacity:1" fill="#eeeeee" d="M 360.5,196.5 C 362.527,196.338 364.527,196.505 366.5,197C 367.551,198.385 368.884,199.385 370.5,200C 371.406,201.699 371.739,203.533 371.5,205.5C 365.808,205.155 362.142,202.155 360.5,196.5 Z"/></g>
<g><path style="opacity:1" fill="#191919" d="M 161.5,193.5 C 167.41,194.003 168.91,197.003 166,202.5C 162.765,205.571 158.932,206.905 154.5,206.5C 154.501,200.827 156.834,196.494 161.5,193.5 Z"/></g>
<g><path style="opacity:1" fill="#d6d6d6" d="M 162.5,196.5 C 164.225,196.843 164.725,197.843 164,199.5C 162.316,201.351 160.483,203.018 158.5,204.5C 158.167,204.167 157.833,203.833 157.5,203.5C 158.931,200.961 160.597,198.628 162.5,196.5 Z"/></g>
<g><path style="opacity:1" fill="#1d1d1d" d="M 436.5,191.5 C 439.883,191.257 443.049,191.924 446,193.5C 446.886,197.866 446.386,202.033 444.5,206C 437.191,205.69 433.691,201.857 434,194.5C 435.045,193.627 435.878,192.627 436.5,191.5 Z"/></g>
<g><path style="opacity:1" fill="#eeeeee" d="M 438.5,194.5 C 439.583,194.539 440.583,194.873 441.5,195.5C 442.466,197.396 442.799,199.396 442.5,201.5C 438.322,200.812 436.989,198.478 438.5,194.5 Z"/></g>
<g><path style="opacity:1" fill="#181818" d="M 182.5,191.5 C 186.852,191.322 188.852,193.488 188.5,198C 188.764,202.65 186.598,205.15 182,205.5C 178.689,205.187 177.189,203.353 177.5,200C 177.667,198.833 177.833,197.667 178,196.5C 179.707,194.963 181.207,193.296 182.5,191.5 Z"/></g>
<g><path style="opacity:1" fill="#e2e2e2" d="M 182.5,194.5 C 184.89,194.685 185.89,196.018 185.5,198.5C 185.743,200.922 184.743,202.588 182.5,203.5C 179.92,200.583 179.92,197.583 182.5,194.5 Z"/></g>
<g><path style="opacity:1" fill="#161616" d="M 411.5,186.5 C 417.653,186.484 420.486,189.484 420,195.5C 416.996,199 413.663,199.333 410,196.5C 409.037,192.851 409.537,189.518 411.5,186.5 Z"/></g>
<g><path style="opacity:1" fill="#e5e5e5" d="M 412.5,189.5 C 416.765,190.899 417.432,193.232 414.5,196.5C 413.914,196.291 413.414,195.957 413,195.5C 412.505,193.527 412.338,191.527 412.5,189.5 Z"/></g>
<g><path style="opacity:1" fill="#d8d8d8" d="M 369.5,189.5 C 371.92,189.292 374.253,189.626 376.5,190.5C 377.582,193.776 376.248,195.443 372.5,195.5C 365.218,195.338 364.218,193.338 369.5,189.5 Z"/></g>
<g><path style="opacity:1" fill="#1f1f1f" d="M 469.5,186.5 C 476.83,188.659 478.83,193.159 475.5,200C 468.129,200.27 465.629,196.77 468,189.5C 469.039,188.756 469.539,187.756 469.5,186.5 Z"/></g>
<g><path style="opacity:1" fill="#f5f5f5" d="M 471.5,191.5 C 473.561,192.751 473.894,194.418 472.5,196.5C 471.548,194.955 471.215,193.288 471.5,191.5 Z"/></g>
<g><path style="opacity:1" fill="#1b1b1b" d="M 323.5,184.5 C 327.67,184.333 331.67,185 335.5,186.5C 335.755,190.493 334.089,193.326 330.5,195C 319.194,196.896 316.86,193.396 323.5,184.5 Z"/></g>
<g><path style="opacity:1" fill="#e1e1e1" d="M 325.5,187.5 C 327.977,187.051 329.977,187.717 331.5,189.5C 329.575,192.172 326.908,193.172 323.5,192.5C 323.392,190.486 324.058,188.82 325.5,187.5 Z"/></g>
<g><path style="opacity:1" fill="#161616" d="M 450.5,181.5 C 457.825,180.992 460.658,184.326 459,191.5C 458.417,193.002 457.584,194.335 456.5,195.5C 454.088,193.413 451.588,191.413 449,189.5C 448.109,186.502 448.609,183.836 450.5,181.5 Z"/></g>
<g><path style="opacity:1" fill="#e1e1e1" d="M 452.5,184.5 C 453.496,184.414 454.329,184.748 455,185.5C 456.012,191.72 454.845,192.054 451.5,186.5C 451.863,185.817 452.196,185.15 452.5,184.5 Z"/></g>
<g><path style="opacity:1" fill="#141414" d="M 274.5,178.5 C 278.919,178.419 281.252,180.586 281.5,185C 280.477,195.114 276.643,196.614 270,189.5C 267.132,183.964 268.632,180.297 274.5,178.5 Z"/></g>
<g><path style="opacity:1" fill="#e5e5e5" d="M 273.5,181.5 C 276.233,181.196 277.899,182.363 278.5,185C 276.89,193.161 274.557,193.161 271.5,185C 271.978,183.697 272.645,182.531 273.5,181.5 Z"/></g>
<g><path style="opacity:1" fill="#191919" d="M 422.5,176.5 C 429.709,174.924 433.543,177.591 434,184.5C 427.923,188.096 423.423,186.596 420.5,180C 420.978,178.697 421.645,177.531 422.5,176.5 Z"/></g>
<g><path style="opacity:1" fill="#e7e7e7" d="M 425.5,180.5 C 427.665,180.116 429.332,180.783 430.5,182.5C 427.83,184.09 426.163,183.423 425.5,180.5 Z"/></g>
<g><path style="opacity:1" fill="#181818" d="M 335.5,170.5 C 341.034,169.603 345.367,171.436 348.5,176C 347.487,179.68 345.153,182.013 341.5,183C 338.036,183.817 334.702,183.483 331.5,182C 328.423,176.651 329.756,172.817 335.5,170.5 Z"/></g>
<g><path style="opacity:1" fill="#ececec" d="M 335.5,174.5 C 338.545,174.508 341.545,174.841 344.5,175.5C 344.208,179.004 342.208,180.671 338.5,180.5C 333.69,180.076 332.69,178.076 335.5,174.5 Z"/></g>
<g><path style="opacity:1" fill="#1b1b1b" d="M 173.5,174.5 C 175.776,174.756 176.943,176.09 177,178.5C 177.804,182.204 177.304,185.704 175.5,189C 168.6,192.098 165.766,189.931 167,182.5C 168.012,178.764 170.179,176.097 173.5,174.5 Z"/></g>
<g><path style="opacity:1" fill="#efefef" d="M 172.5,178.5 C 173.693,178.97 174.36,179.97 174.5,181.5C 174.547,184.073 173.547,186.073 171.5,187.5C 171.167,186.667 170.833,185.833 170.5,185C 171.033,182.774 171.7,180.607 172.5,178.5 Z"/></g>
<g><path style="opacity:1" fill="#191919" d="M 376.5,171.5 C 380.637,171.146 384.637,171.646 388.5,173C 391.385,174.933 392.052,177.433 390.5,180.5C 382.188,183.189 377.521,180.189 376.5,171.5 Z"/></g>
<g><path style="opacity:1" fill="#dedede" d="M 380.5,173.5 C 382.564,173.687 384.564,174.187 386.5,175C 389.31,178.047 388.643,179.38 384.5,179C 382.536,177.549 381.203,175.716 380.5,173.5 Z"/></g>
<g><path style="opacity:1" fill="#141414" d="M 250.5,169.5 C 255.488,170.317 258.822,173.151 260.5,178C 260.241,179.261 259.574,180.261 258.5,181C 252.243,182.743 248.576,180.41 247.5,174C 247.557,171.791 248.557,170.291 250.5,169.5 Z"/></g>
<g><path style="opacity:1" fill="#d1d1d1" d="M 250.5,172.5 C 253.946,173.612 255.946,175.945 256.5,179.5C 252.427,179.054 250.427,176.72 250.5,172.5 Z"/></g>
<g><path style="opacity:1" fill="#202020" d="M 238.5,165.5 C 239.822,165.33 240.989,165.663 242,166.5C 243.441,176.065 239.608,179.565 230.5,177C 229.251,174.79 229.418,172.624 231,170.5C 233.479,168.686 235.979,167.019 238.5,165.5 Z"/></g>
<g><path style="opacity:1" fill="#ededed" d="M 237.5,169.5 C 238.376,169.369 239.043,169.702 239.5,170.5C 239.29,174.38 237.29,176.047 233.5,175.5C 233.657,172.682 234.991,170.682 237.5,169.5 Z"/></g>
<g><path style="opacity:1" fill="#131313" d="M 154.5,157.5 C 160.113,156.079 162.28,158.079 161,163.5C 159.655,168.349 156.489,170.682 151.5,170.5C 150.738,165.607 151.738,161.274 154.5,157.5 Z"/></g>
<g><path style="opacity:1" fill="#e8e8e8" d="M 155.5,160.5 C 156.675,160.281 157.675,160.614 158.5,161.5C 154.825,168.422 153.825,168.089 155.5,160.5 Z"/></g>
<g><path style="opacity:1" fill="#141414" d="M 297.5,155.5 C 302.436,155.311 306.602,156.977 310,160.5C 310.788,162.165 311.122,163.831 311,165.5C 307.256,166.626 303.423,166.793 299.5,166C 295.151,163.091 294.484,159.591 297.5,155.5 Z"/></g>
<g><path style="opacity:1" fill="#dedede" d="M 299.5,158.5 C 302.99,158.245 305.657,159.578 307.5,162.5C 302.833,164.649 300.167,163.316 299.5,158.5 Z"/></g>
<g><path style="opacity:1" fill="#181818" d="M 461.5,156.5 C 464.265,156.798 466.765,157.798 469,159.5C 470.042,162.804 468.875,164.971 465.5,166C 463.029,166.706 460.695,166.373 458.5,165C 457.335,163.916 456.002,163.083 454.5,162.5C 453.614,161.675 453.281,160.675 453.5,159.5C 456.542,159.267 459.208,158.267 461.5,156.5 Z"/></g>
<g><path style="opacity:1" fill="#e5e5e5" d="M 461.5,159.5 C 464.166,159.066 465.333,160.066 465,162.5C 462.761,163.869 460.927,163.369 459.5,161C 460.416,160.722 461.082,160.222 461.5,159.5 Z"/></g>
<g><path style="opacity:1" fill="#1e1e1e" d="M 188.5,157.5 C 192.287,156.814 195.454,157.814 198,160.5C 198.269,163.28 197.102,165.446 194.5,167C 191.036,167.817 187.702,167.483 184.5,166C 183.446,164.612 183.28,163.112 184,161.5C 185.397,159.93 186.897,158.596 188.5,157.5 Z"/></g>
<g><path style="opacity:1" fill="#f2f2f2" d="M 189.5,160.5 C 191.167,160.5 192.833,160.5 194.5,160.5C 194.763,163.734 193.263,165.068 190,164.5C 188.833,164.333 187.667,164.167 186.5,164C 187.71,162.961 188.71,161.794 189.5,160.5 Z"/></g>
<g><path style="opacity:1" fill="#171717" d="M 395.5,153.5 C 400.599,152.942 403.766,154.942 405,159.5C 402.387,162.519 399.221,163.186 395.5,161.5C 394.966,159.386 393.966,157.552 392.5,156C 393.571,155.148 394.571,154.315 395.5,153.5 Z"/></g>
<g><path style="opacity:1" fill="#d3d3d3" d="M 397.5,157.5 C 398.978,157.238 400.311,157.571 401.5,158.5C 399.537,161.194 398.203,160.861 397.5,157.5 Z"/></g>
<g><path style="opacity:1" fill="#191919" d="M 267.5,153.5 C 272.993,152.178 275.493,154.178 275,159.5C 271.69,161.663 268.19,161.996 264.5,160.5C 263.386,159.277 263.219,157.944 264,156.5C 265.145,155.364 266.312,154.364 267.5,153.5 Z"/></g>
<g><path style="opacity:1" fill="#e3e3e3" d="M 268.5,156.5 C 269.978,156.238 271.311,156.571 272.5,157.5C 270.926,158.631 269.259,158.798 267.5,158C 268.056,157.617 268.389,157.117 268.5,156.5 Z"/></g>
<g><path style="opacity:1" fill="#8d8d8d" d="M 64.5,152.5 C 64.5,153.833 64.5,155.167 64.5,156.5C 65.5,156.5 66.5,156.5 67.5,156.5C 66.4324,157.434 65.099,157.768 63.5,157.5C 63.2155,155.585 63.5489,153.919 64.5,152.5 Z"/></g>
<g><path style="opacity:1" fill="#1e1e1e" d="M 343.5,150.5 C 346.649,150.211 349.649,150.711 352.5,152C 354.223,155.408 353.223,157.741 349.5,159C 339.052,161.416 337.052,158.583 343.5,150.5 Z"/></g>
<g><path style="opacity:1" fill="#f1f1f1" d="M 346.5,153.5 C 348.103,153.312 349.437,153.812 350.5,155C 348.728,156.487 346.728,156.82 344.5,156C 345.381,155.292 346.047,154.458 346.5,153.5 Z"/></g>
<g><path style="opacity:1" fill="#151515" d="M 85.5,150.5 C 93.7327,149.197 95.3994,151.697 90.5,158C 86.7847,159.295 83.1181,160.462 79.5,161.5C 79.372,159.345 79.872,157.345 81,155.5C 82.7073,153.963 84.2073,152.296 85.5,150.5 Z"/></g>
<g><path style="opacity:1" fill="#d3d3d3" d="M 88.5,152.5 C 90.9272,153.279 90.9272,154.446 88.5,156C 86.9556,157.187 85.2889,157.52 83.5,157C 85.2395,155.483 86.9062,153.983 88.5,152.5 Z"/></g>
<g><path style="opacity:1" fill="#171717" d="M 178.5,144.5 C 181.167,144.5 183.833,144.5 186.5,144.5C 186.093,150.245 183.093,153.911 177.5,155.5C 175.052,154.886 173.385,153.386 172.5,151C 174.014,148.322 176.014,146.155 178.5,144.5 Z"/></g>
<g><path style="opacity:1" fill="#d7d7d7" d="M 178.5,147.5 C 183.067,147.274 183.4,148.774 179.5,152C 178.552,152.483 177.552,152.649 176.5,152.5C 176.392,150.486 177.058,148.82 178.5,147.5 Z"/></g>
<g><path style="opacity:1" fill="#141414" d="M 67.5,156.5 C 66.5,156.5 65.5,156.5 64.5,156.5C 64.5,155.167 64.5,153.833 64.5,152.5C 65.9412,145.889 69.7746,143.889 76,146.5C 76.6667,148.167 76.6667,149.833 76,151.5C 73.5544,153.816 70.721,155.483 67.5,156.5 Z"/></g>
<g><path style="opacity:1" fill="#d8d8d8" d="M 71.5,147.5 C 74.0985,149.584 73.5985,151.251 70,152.5C 69.5,152.167 69,151.833 68.5,151.5C 69.5244,150.148 70.5244,148.815 71.5,147.5 Z"/></g>
<g><path style="opacity:1" fill="#171717" d="M 287.5,142.5 C 295.703,141.076 299.37,144.409 298.5,152.5C 295.022,152.816 291.688,152.316 288.5,151C 286.265,148.415 285.931,145.582 287.5,142.5 Z"/></g>
<g><path style="opacity:1" fill="#d4d4d4" d="M 290.5,145.5 C 292.346,145.222 293.68,145.889 294.5,147.5C 293.311,148.429 291.978,148.762 290.5,148.5C 290.5,147.5 290.5,146.5 290.5,145.5 Z"/></g>
<g><path style="opacity:1" fill="#161616" d="M 445.5,139.5 C 449.793,139.652 453.626,140.986 457,143.5C 458.825,148.986 456.992,151.486 451.5,151C 447.748,147.993 445.748,144.16 445.5,139.5 Z"/></g>
<g><path style="opacity:1" fill="#cacaca" d="M 449.5,142.5 C 453.713,142.699 455.046,144.699 453.5,148.5C 451.663,146.824 450.33,144.824 449.5,142.5 Z"/></g>
<g><path style="opacity:1" fill="#191919" d="M 360.5,138.5 C 368.762,138.321 370.595,141.655 366,148.5C 358.306,154.511 355.306,152.511 357,142.5C 358.102,141.051 359.269,139.718 360.5,138.5 Z"/></g>
<g><path style="opacity:1" fill="#e1e1e1" d="M 361.5,141.5 C 363.635,141.147 364.968,141.98 365.5,144C 364.708,145.96 363.375,147.46 361.5,148.5C 360.286,146.141 360.286,143.808 361.5,141.5 Z"/></g>
<g><path style="opacity:1" fill="#1f1f1f" d="M 206.5,138.5 C 209.85,138.335 213.183,138.502 216.5,139C 222.101,143.879 221.268,147.379 214,149.5C 209.041,147.602 206.541,143.935 206.5,138.5 Z"/></g>
<g><path style="opacity:1" fill="#dedede" d="M 211.5,141.5 C 215.126,140.861 216.959,142.194 217,145.5C 213.463,146.818 211.629,145.485 211.5,141.5 Z"/></g>
<g><path style="opacity:1" fill="#1d1d1d" d="M 425.5,134.5 C 431.086,134.92 433.586,137.92 433,143.5C 429.667,148.833 426.333,148.833 423,143.5C 421.927,139.9 422.76,136.9 425.5,134.5 Z"/></g>
<g><path style="opacity:1" fill="#e4e4e4" d="M 426.5,138.5 C 428.484,138.484 429.484,139.484 429.5,141.5C 429.547,143 428.881,144 427.5,144.5C 426.534,142.604 426.201,140.604 426.5,138.5 Z"/></g>
<g><path style="opacity:1" fill="#1a1a1a" d="M 308.5,135.5 C 313.227,135.048 317.06,136.715 320,140.5C 320.698,144.651 318.865,146.984 314.5,147.5C 308.509,145.506 306.509,141.506 308.5,135.5 Z"/></g>
<g><path style="opacity:1" fill="#e7e7e7" d="M 311.5,138.5 C 315.534,138.67 316.868,140.504 315.5,144C 312.223,143.862 310.889,142.029 311.5,138.5 Z"/></g>
<g><path style="opacity:1" fill="#1c1c1c" d="M 153.5,132.5 C 154.675,132.281 155.675,132.614 156.5,133.5C 154.028,138.477 150.194,141.81 145,143.5C 139.534,141.38 139.034,138.213 143.5,134C 147.025,133.821 150.359,133.321 153.5,132.5 Z"/></g>
<g><path style="opacity:1" fill="#e4e4e4" d="M 145.5,136.5 C 147.199,136.34 148.866,136.506 150.5,137C 148.691,139.238 146.358,140.405 143.5,140.5C 143.527,138.801 144.194,137.467 145.5,136.5 Z"/></g>
<g><path style="opacity:1" fill="#141414" d="M 336.5,131.5 C 339.685,131.02 342.519,131.686 345,133.5C 345.604,137.588 343.77,140.088 339.5,141C 333.92,142.261 332.087,140.094 334,134.5C 335.045,133.627 335.878,132.627 336.5,131.5 Z"/></g>
<g><path style="opacity:1" fill="#dddddd" d="M 338.5,134.5 C 343.557,135.145 343.557,136.478 338.5,138.5C 337.374,137.192 337.374,135.858 338.5,134.5 Z"/></g>
<g><path style="opacity:1" fill="#191919" d="M 124.5,130.5 C 131.472,129.982 136.138,132.982 138.5,139.5C 134.286,141.98 129.953,142.147 125.5,140C 122.122,137.036 121.789,133.869 124.5,130.5 Z"/></g>
<g><path style="opacity:1" fill="#e5e5e5" d="M 126.5,133.5 C 129.99,133.245 132.657,134.578 134.5,137.5C 129.833,139.649 127.167,138.316 126.5,133.5 Z"/></g>
<g><path style="opacity:1" fill="#131313" d="M 435.5,129.5 C 442.899,128.405 446.065,131.405 445,138.5C 438.283,139.624 435.116,136.624 435.5,129.5 Z"/></g>
<g><path style="opacity:1" fill="#cacaca" d="M 439.5,132.5 C 441.728,133.322 442.395,134.655 441.5,136.5C 439.889,135.68 439.222,134.346 439.5,132.5 Z"/></g>
<g><path style="opacity:1" fill="#151515" d="M 378.5,124.5 C 383.262,124.698 387.428,126.365 391,129.5C 391.664,134.496 389.498,136.33 384.5,135C 381.082,132.333 379.082,128.833 378.5,124.5 Z"/></g>
<g><path style="opacity:1" fill="#d5d5d5" d="M 383.5,128.5 C 385.384,128.712 386.717,129.712 387.5,131.5C 385.219,132.262 383.886,131.262 383.5,128.5 Z"/></g>
<g><path style="opacity:1" fill="#141414" d="M 285.5,129.5 C 293.278,129.678 296.278,133.678 294.5,141.5C 290.115,141.478 286.282,140.145 283,137.5C 281.837,134.029 282.67,131.362 285.5,129.5 Z"/></g>
<g><path style="opacity:1" fill="#e8e8e8" d="M 287.5,132.5 C 291.772,135.035 291.439,136.368 286.5,136.5C 286.433,135.041 286.766,133.708 287.5,132.5 Z"/></g>
<g><path style="opacity:1" fill="#151515" d="M 361.5,120.5 C 364.649,120.211 367.649,120.711 370.5,122C 373.154,126.247 371.821,128.747 366.5,129.5C 362.515,129.513 359.515,127.846 357.5,124.5C 358.867,123.16 360.2,121.827 361.5,120.5 Z"/></g>
<g><path style="opacity:1" fill="#d4d4d4" d="M 362.5,123.5 C 364.977,123.051 366.977,123.717 368.5,125.5C 365.707,126.972 363.707,126.306 362.5,123.5 Z"/></g>
<g><path style="opacity:1" fill="#171717" d="M 76.5,123.5 C 78.924,123.192 81.2573,123.526 83.5,124.5C 84.9401,128.842 83.2734,131.342 78.5,132C 76.1902,132.497 73.8568,132.663 71.5,132.5C 71.3433,131.127 71.51,129.793 72,128.5C 73.7073,126.963 75.2073,125.296 76.5,123.5 Z"/></g>
<g><path style="opacity:1" fill="#d8d8d8" d="M 78.5,125.5 C 82.1351,125.656 82.4685,126.822 79.5,129C 78.1667,129.667 76.8333,129.667 75.5,129C 76.7101,127.961 77.7101,126.794 78.5,125.5 Z"/></g>
<g><path style="opacity:1" fill="#171717" d="M 400.5,119.5 C 403.271,119.421 405.937,119.921 408.5,121C 410.978,122.938 411.145,125.105 409,127.5C 404.471,129.163 400.305,128.496 396.5,125.5C 395.479,124.998 395.312,124.332 396,123.5C 397.667,122.267 399.167,120.933 400.5,119.5 Z"/></g>
<g><path style="opacity:1" fill="#cacaca" d="M 402.5,122.5 C 405.5,122.167 406.833,123.5 406.5,126.5C 404.173,126.753 402.173,126.086 400.5,124.5C 401.243,123.818 401.909,123.151 402.5,122.5 Z"/></g>
<g><path style="opacity:1" fill="#1a1a1a" d="M 94.5,117.5 C 98.547,117.332 101.88,118.665 104.5,121.5C 102.327,126.252 98.66,128.418 93.5,128C 91.8757,126.883 90.8757,125.383 90.5,123.5C 91.4316,121.235 92.7649,119.235 94.5,117.5 Z"/></g>
<g><path style="opacity:1" fill="#d8d8d8" d="M 94.5,121.5 C 101.846,120.776 102.346,122.11 96,125.5C 93.5003,124.842 93.0003,123.509 94.5,121.5 Z"/></g>
<g><path style="opacity:1" fill="#181818" d="M 451.5,115.5 C 457.55,115.72 460.716,118.72 461,124.5C 454.88,129.374 450.713,128.041 448.5,120.5C 449.092,118.577 450.092,116.911 451.5,115.5 Z"/></g>
<g><path style="opacity:1" fill="#d6d6d6" d="M 452.5,118.5 C 455.786,119.242 457.12,121.075 456.5,124C 452.965,123.645 451.632,121.812 452.5,118.5 Z"/></g>
<g><path style="opacity:1" fill="#151515" d="M 211.5,118.5 C 214.187,118.336 216.854,118.503 219.5,119C 222.399,122.227 221.732,124.56 217.5,126C 214.833,126.667 212.167,126.667 209.5,126C 206.759,122.711 207.425,120.211 211.5,118.5 Z"/></g>
<g><path style="opacity:1" fill="#d5d5d5" d="M 213.5,120.5 C 215.167,120.5 216.833,120.5 218.5,120.5C 218.763,123.734 217.263,125.068 214,124.5C 212.833,124.167 211.667,123.833 210.5,123.5C 211.77,122.712 212.77,121.712 213.5,120.5 Z"/></g>
<g><path style="opacity:1" fill="#1a1a1a" d="M 349.5,113.5 C 352.85,113.335 356.183,113.502 359.5,114C 361.14,120.031 358.807,122.697 352.5,122C 349.764,120.638 347.431,118.804 345.5,116.5C 346.901,115.479 348.235,114.479 349.5,113.5 Z"/></g>
<g><path style="opacity:1" fill="#e7e7e7" d="M 351.5,116.5 C 353.781,116.077 355.448,116.744 356.5,118.5C 354.49,119.349 352.823,118.682 351.5,116.5 Z"/></g>
<g><path style="opacity:1" fill="#787878" d="M 351.5,116.5 C 353.265,115.539 355.265,115.205 357.5,115.5C 357.737,116.791 357.404,117.791 356.5,118.5C 355.448,116.744 353.781,116.077 351.5,116.5 Z"/></g>
<g><path style="opacity:1" fill="#161616" d="M 247.5,111.5 C 253.344,110.569 258.178,112.236 262,116.5C 261.695,122.784 258.195,125.451 251.5,124.5C 250.737,129.772 247.903,131.439 243,129.5C 243.307,135.828 240.474,138.661 234.5,138C 232.206,135.112 231.039,131.945 231,128.5C 233.549,124.075 236.882,123.408 241,126.5C 244.2,121.896 246.367,116.896 247.5,111.5 Z"/></g>
<g><path style="opacity:1" fill="#dadada" d="M 235.5,127.5 C 239.225,127.78 240.392,129.78 239,133.5C 238.692,134.308 238.192,134.975 237.5,135.5C 234.577,133.396 233.91,130.73 235.5,127.5 Z"/></g>
<g><path style="opacity:1" fill="#dbdbdb" d="M 245.5,122.5 C 247.972,123.749 248.139,125.415 246,127.5C 245.506,125.866 245.34,124.199 245.5,122.5 Z"/></g>
<g><path style="opacity:1" fill="#e5e5e5" d="M 252.5,117.5 C 254.5,117.5 256.5,117.5 258.5,117.5C 258.412,120.309 256.912,121.642 254,121.5C 248.911,121.128 248.411,119.795 252.5,117.5 Z"/></g>
<g><path style="opacity:1" fill="#1a1a1a" d="M 280.5,114.5 C 284.833,114.5 289.167,114.5 293.5,114.5C 291.805,122.035 287.138,125.535 279.5,125C 275.514,121.105 275.847,117.605 280.5,114.5 Z"/></g>
<g><path style="opacity:1" fill="#e5e5e5" d="M 281.5,117.5 C 283.924,117.192 286.257,117.526 288.5,118.5C 286.5,121.167 283.833,122.5 280.5,122.5C 280.366,120.708 280.699,119.042 281.5,117.5 Z"/></g>
<g><path style="opacity:1" fill="#cdcdcd" d="M 250.5,113.5 C 252.934,114.354 252.767,115.354 250,116.5C 249.53,115.423 249.697,114.423 250.5,113.5 Z"/></g>
<g><path style="opacity:1" fill="#1b1b1b" d="M 431.5,108.5 C 439.054,107.323 443.221,110.323 444,117.5C 441.373,119.988 438.54,120.155 435.5,118C 432.922,115.926 430.922,113.426 429.5,110.5C 430.243,109.818 430.909,109.151 431.5,108.5 Z"/></g>
<g><path style="opacity:1" fill="#d6d6d6" d="M 433.5,112.5 C 436.649,110.771 438.982,111.605 440.5,115C 440.167,115.5 439.833,116 439.5,116.5C 437.21,115.533 435.21,114.2 433.5,112.5 Z"/></g>
<g><path style="opacity:1" fill="#131313" d="M 312.5,112.5 C 316.192,111.971 319.358,112.971 322,115.5C 323.033,118.217 322.2,120.051 319.5,121C 315.118,122.419 311.784,121.252 309.5,117.5C 310.092,115.577 311.092,113.911 312.5,112.5 Z"/></g>
<g><path style="opacity:1" fill="#9b9b9b" d="M 314.5,115.5 C 318.999,115.935 319.332,116.935 315.5,118.5C 313.197,118.124 312.863,117.124 314.5,115.5 Z"/></g>
<g><path style="opacity:1" fill="#121212" d="M 405.5,106.5 C 409.308,106.163 412.974,106.663 416.5,108C 419.265,110.966 418.932,113.633 415.5,116C 412.211,116.746 409.711,115.58 408,112.5C 407.345,110.372 406.511,108.372 405.5,106.5 Z"/></g>
<g><path style="opacity:1" fill="#c2c2c2" d="M 410.5,108.5 C 412.17,108.751 413.67,109.418 415,110.5C 415.563,111.725 415.23,112.725 414,113.5C 412.198,112.211 411.031,110.544 410.5,108.5 Z"/></g>
<g><path style="opacity:1" fill="#1c1c1c" d="M 158.5,105.5 C 161.649,105.211 164.649,105.711 167.5,107C 169.236,111.946 167.403,114.446 162,114.5C 157.682,114.353 154.515,112.353 152.5,108.5C 154.745,107.792 156.745,106.792 158.5,105.5 Z"/></g>
<g><path style="opacity:1" fill="#dbdbdb" d="M 158.5,108.5 C 160.5,108.5 162.5,108.5 164.5,108.5C 164.853,110.635 164.02,111.968 162,112.5C 159.926,111.928 158.76,110.595 158.5,108.5 Z"/></g>
<g><path style="opacity:1" fill="#212121" d="M 118.5,105.5 C 124,104.831 126.167,107.165 125,112.5C 121.52,115.21 117.687,116.71 113.5,117C 112.446,115.612 112.28,114.112 113,112.5C 114.666,110.004 116.5,107.671 118.5,105.5 Z"/></g>
<g><path style="opacity:1" fill="#d9d9d9" d="M 118.5,108.5 C 119.5,108.5 120.5,108.5 121.5,108.5C 121.156,112.534 119.156,114.201 115.5,113.5C 116.26,111.64 117.26,109.973 118.5,108.5 Z"/></g>
<g><path style="opacity:1" fill="#1c1c1c" d="M 191.5,102.5 C 196.006,102.148 200.339,102.815 204.5,104.5C 206.052,107.567 205.385,110.067 202.5,112C 198.705,112.837 195.039,112.504 191.5,111C 187.514,107.985 187.514,105.151 191.5,102.5 Z"/></g>
<g><path style="opacity:1" fill="#eaeaea" d="M 191.5,105.5 C 194.833,105.5 198.167,105.5 201.5,105.5C 201.5,106.833 201.5,108.167 201.5,109.5C 198.813,109.664 196.146,109.497 193.5,109C 192.177,108.184 191.511,107.017 191.5,105.5 Z"/></g>
<g><path style="opacity:1" fill="#171717" d="M 369.5,102.5 C 372.813,103.045 376.146,103.545 379.5,104C 383.21,110.071 381.543,112.404 374.5,111C 372.667,109.167 370.833,107.333 369,105.5C 368.53,104.423 368.697,103.423 369.5,102.5 Z"/></g>
<g><path style="opacity:1" fill="#ebebeb" d="M 375.5,107.5 C 376.077,106.227 376.743,106.227 377.5,107.5C 377.03,108.463 376.363,108.463 375.5,107.5 Z"/></g>
<g><path style="opacity:1" fill="#181818" d="M 263.5,100.5 C 265.167,100.5 266.833,100.5 268.5,100.5C 270.004,107.493 267.337,110.327 260.5,109C 258.702,105.142 259.702,102.309 263.5,100.5 Z"/></g>
<g><path style="opacity:1" fill="#d4d4d4" d="M 264.5,103.5 C 265.867,105.093 265.534,106.426 263.5,107.5C 263.167,107.167 262.833,106.833 262.5,106.5C 263.193,105.482 263.859,104.482 264.5,103.5 Z"/></g>
<g><path style="opacity:1" fill="#141414" d="M 223.5,100.5 C 229.84,99.8509 232.84,102.518 232.5,108.5C 224.98,110.641 221.98,107.974 223.5,100.5 Z"/></g>
<g><path style="opacity:1" fill="#ebebeb" d="M 225.5,103.5 C 227.983,103.73 228.483,104.397 227,105.5C 225.97,105.164 225.47,104.497 225.5,103.5 Z"/></g>
<g><path style="opacity:1" fill="#1e1e1e" d="M 102.5,96.5 C 105.187,96.3359 107.854,96.5026 110.5,97C 112.48,101.366 111.147,104.366 106.5,106C 96.6939,106.065 95.3606,102.899 102.5,96.5 Z"/></g>
<g><path style="opacity:1" fill="#d2d2d2" d="M 103.5,99.5 C 104.833,99.5 106.167,99.5 107.5,99.5C 106.881,103.143 104.881,104.143 101.5,102.5C 102.193,101.482 102.859,100.482 103.5,99.5 Z"/></g>
<g><path style="opacity:1" fill="#0f0f0f" d="M 347.5,94.5 C 351.839,93.8461 355.673,94.8461 359,97.5C 359.571,101.615 357.737,104.115 353.5,105C 344.412,105.426 342.412,101.926 347.5,94.5 Z"/></g>
<g><path style="opacity:1" fill="#d8d8d8" d="M 349.5,97.5 C 351.527,97.3379 353.527,97.5045 355.5,98C 355.957,98.414 356.291,98.914 356.5,99.5C 354.74,102.021 352.407,102.854 349.5,102C 348.272,100.51 348.272,99.0098 349.5,97.5 Z"/></g>
<g><path style="opacity:1" fill="#212121" d="M 208.5,88.5 C 211.5,88.5 214.5,88.5 217.5,88.5C 217.436,93.8986 214.77,97.2319 209.5,98.5C 203.184,95.7769 202.85,92.4435 208.5,88.5 Z"/></g>
<g><path style="opacity:1" fill="#121212" d="M 270.5,87.5 C 277.494,86.6747 281.327,89.6747 282,96.5C 278.591,97.6219 275.091,97.7886 271.5,97C 267.956,94.1268 267.623,90.9601 270.5,87.5 Z"/></g>
<g><path style="opacity:1" fill="#1a1a1a" d="M 314.5,87.5 C 323.113,87.2434 324.446,90.0767 318.5,96C 314.642,98.5405 311.976,97.7072 310.5,93.5C 311.347,91.1291 312.68,89.1291 314.5,87.5 Z"/></g>
<g><path style="opacity:1" fill="#d5d5d5" d="M 272.5,89.5 C 275.256,90.2175 277.256,91.8841 278.5,94.5C 276.45,95.6627 274.45,95.4961 272.5,94C 271.272,92.5098 271.272,91.0098 272.5,89.5 Z"/></g>
<g><path style="opacity:1" fill="#e1e1e1" d="M 209.5,91.5 C 213.876,90.8876 214.543,92.0543 211.5,95C 210.552,95.4828 209.552,95.6495 208.5,95.5C 208.433,94.0413 208.766,92.7079 209.5,91.5 Z"/></g>
<g><path style="opacity:1" fill="#191919" d="M 391.5,82.5 C 394.708,83.8498 398.041,85.0164 401.5,86C 405.888,91.3047 404.555,93.6381 397.5,93C 393.55,90.5641 391.55,87.0641 391.5,82.5 Z"/></g>
<g><path style="opacity:1" fill="#cecece" d="M 316.5,89.5 C 317.497,89.4701 318.164,89.9701 318.5,91C 317.924,92.7144 316.757,93.8811 315,94.5C 314.387,92.5048 314.887,90.8381 316.5,89.5 Z"/></g>
<g><path style="opacity:1" fill="#bcbcbc" d="M 395.5,87.5 C 397.48,86.6324 399.147,87.2991 400.5,89.5C 400.167,89.8333 399.833,90.1667 399.5,90.5C 398.148,89.4756 396.815,88.4756 395.5,87.5 Z"/></g>
<g><path style="opacity:1" fill="#131313" d="M 344.5,81.5 C 348.273,81.2633 351.94,81.7633 355.5,83C 357.324,87.0216 355.991,89.1882 351.5,89.5C 346.067,89.0924 343.734,86.4257 344.5,81.5 Z"/></g>
<g><path style="opacity:1" fill="#bbbbbb" d="M 348.5,83.5 C 350.09,83.6282 351.423,84.2949 352.5,85.5C 350.167,86.9415 348.834,86.2748 348.5,83.5 Z"/></g>
<g><path style="opacity:1" fill="#222222" d="M 132.5,78.5 C 135.564,78.1437 138.231,78.9771 140.5,81C 143.341,84.1588 142.674,86.4922 138.5,88C 135.833,88.6667 133.167,88.6667 130.5,88C 126.192,83.7347 126.859,80.568 132.5,78.5 Z"/></g>
<g><path style="opacity:1" fill="#191919" d="M 249.5,79.5 C 262.701,80.4722 263.701,84.3055 252.5,91C 245.495,92.3236 242.995,89.4902 245,82.5C 246.409,81.2189 247.909,80.2189 249.5,79.5 Z"/></g>
<g><path style="opacity:1" fill="#e3e3e3" d="M 249.5,82.5 C 259.923,83.0441 260.089,85.0441 250,88.5C 246.897,86.888 246.73,84.888 249.5,82.5 Z"/></g>
<g><path style="opacity:1" fill="#ebebeb" d="M 132.5,81.5 C 135.022,81.1281 137.022,81.9614 138.5,84C 136.098,84.8141 133.765,84.6474 131.5,83.5C 131.863,82.8165 132.196,82.1499 132.5,81.5 Z"/></g>
<g><path style="opacity:1" fill="#202020" d="M 116.5,79.5 C 119.685,79.0196 122.519,79.6863 125,81.5C 125.682,85.1802 124.182,87.6802 120.5,89C 110.172,89.5138 108.839,86.3471 116.5,79.5 Z"/></g>
<g><path style="opacity:1" fill="#e8e8e8" d="M 118.5,82.5 C 119.5,82.5 120.5,82.5 121.5,82.5C 121.22,86.2253 119.22,87.392 115.5,86C 116.71,84.9609 117.71,83.7942 118.5,82.5 Z"/></g>
<g><path style="opacity:1" fill="#1a1a1a" d="M 375.5,77.5 C 383.302,77.7874 385.302,81.2874 381.5,88C 374.693,87.6192 372.693,84.1192 375.5,77.5 Z"/></g>
<g><path style="opacity:1" fill="#d1d1d1" d="M 376.5,80.5 C 379.47,80.7458 380.803,82.4124 380.5,85.5C 377.53,85.2542 376.197,83.5876 376.5,80.5 Z"/></g>
<g><path style="opacity:1" fill="#161616" d="M 317.5,71.5 C 320.518,71.3354 323.518,71.502 326.5,72C 328.223,75.4079 327.223,77.7413 323.5,79C 320.106,79.7517 316.773,79.5851 313.5,78.5C 312.417,77.635 312.251,76.635 313,75.5C 314.667,74.2668 316.167,72.9335 317.5,71.5 Z"/></g>
<g><path style="opacity:1" fill="#c4c4c4" d="M 320.5,73.5 C 321.978,73.238 323.311,73.5713 324.5,74.5C 324.291,75.086 323.957,75.586 323.5,76C 321.5,76.6667 319.5,76.6667 317.5,76C 318.571,75.1482 319.571,74.3149 320.5,73.5 Z"/></g>
<g><path style="opacity:1" fill="#1d1d1d" d="M 157.5,74.5 C 163.989,74.1563 165.989,76.9896 163.5,83C 159.35,85.1442 155.35,84.9775 151.5,82.5C 150.674,81.549 150.508,80.549 151,79.5C 153.326,77.9343 155.492,76.2676 157.5,74.5 Z"/></g>
<g><path style="opacity:1" fill="#e5e5e5" d="M 157.5,77.5 C 160.166,77.0658 161.333,78.0658 161,80.5C 158.861,81.7691 156.695,81.7691 154.5,80.5C 155.77,79.7124 156.77,78.7124 157.5,77.5 Z"/></g>
<g><path style="opacity:1" fill="#141414" d="M 359.5,69.5 C 367.073,68.0869 370.74,71.0869 370.5,78.5C 368.473,78.6621 366.473,78.4955 364.5,78C 362.301,75.6325 359.968,73.4658 357.5,71.5C 358.243,70.8182 358.909,70.1515 359.5,69.5 Z"/></g>
<g><path style="opacity:1" fill="#151515" d="M 180.5,71.5 C 186.203,70.7299 189.37,73.0632 190,78.5C 186.817,80.5234 183.317,81.0234 179.5,80C 176.815,76.8833 177.148,74.05 180.5,71.5 Z"/></g>
<g><path style="opacity:1" fill="#dcdcdc" d="M 181.5,74.5 C 189.177,76.4767 189.177,77.4767 181.5,77.5C 181.5,76.5 181.5,75.5 181.5,74.5 Z"/></g>
<g><path style="opacity:1" fill="#adadad" d="M 364.5,72.5 C 365.995,72.4148 366.995,73.0815 367.5,74.5C 365.604,75.6394 364.604,74.9728 364.5,72.5 Z"/></g>
<g><path style="opacity:1" fill="#191919" d="M 205.5,70.5 C 208.564,70.1437 211.231,70.9771 213.5,73C 215.515,74.5553 215.848,76.3886 214.5,78.5C 206.463,83.8953 202.63,81.8953 203,72.5C 203.995,71.9341 204.828,71.2674 205.5,70.5 Z"/></g>
<g><path style="opacity:1" fill="#d9d9d9" d="M 206.5,73.5 C 212.57,74.2139 212.903,75.8806 207.5,78.5C 205.296,77.218 204.962,75.5514 206.5,73.5 Z"/></g>
<g><path style="opacity:1" fill="#1d1d1d" d="M 141.5,68.5 C 144.271,68.4207 146.937,68.9207 149.5,70C 152.357,74.1282 151.191,76.6282 146,77.5C 140.605,76.5904 139.105,73.5904 141.5,68.5 Z"/></g>
<g><path style="opacity:1" fill="#d5d5d5" d="M 143.5,71.5 C 144.833,71.5 146.167,71.5 147.5,71.5C 147.5,72.5 147.5,73.5 147.5,74.5C 145.027,74.9118 143.694,73.9118 143.5,71.5 Z"/></g>
<g><path style="opacity:1" fill="#1a1a1a" d="M 278.5,67.5 C 282.453,67.6544 286.119,68.6544 289.5,70.5C 289.822,72.7224 289.155,74.5557 287.5,76C 284.5,76.6667 281.5,76.6667 278.5,76C 274.605,73.178 274.605,70.3446 278.5,67.5 Z"/></g>
<g><path style="opacity:1" fill="#e5e5e5" d="M 280.5,71.5 C 282.103,71.3118 283.437,71.8118 284.5,73C 282.537,73.8442 281.204,73.3442 280.5,71.5 Z"/></g>
<g><path style="opacity:1" fill="#161616" d="M 231.5,68.5 C 234.249,68.2739 236.916,68.6072 239.5,69.5C 241.279,73.0964 240.279,75.5964 236.5,77C 228.208,77.89 226.542,75.0567 231.5,68.5 Z"/></g>
<g><path style="opacity:1" fill="#e3e3e3" d="M 232.5,71.5 C 234.288,71.2148 235.955,71.5481 237.5,72.5C 235.737,74.9361 233.737,75.1027 231.5,73C 232.056,72.6174 232.389,72.1174 232.5,71.5 Z"/></g>
<g><path style="opacity:1" fill="#171717" d="M 213.5,62.5 C 216.85,62.335 220.183,62.5017 223.5,63C 225.035,70.1143 222.368,72.1143 215.5,69C 213.984,67.103 213.317,64.9363 213.5,62.5 Z"/></g>
<g><path style="opacity:1" fill="#d5d5d5" d="M 217.5,64.5 C 218.833,64.5 220.167,64.5 221.5,64.5C 221.5,65.5 221.5,66.5 221.5,67.5C 219.027,67.9118 217.694,66.9118 217.5,64.5 Z"/></g>
<g><path style="opacity:1" fill="#0a0a0a" d="M 289.5,59.5 C 293.182,59.3347 296.848,59.5014 300.5,60C 302.223,63.4079 301.223,65.7413 297.5,67C 295.5,67.6667 293.5,67.6667 291.5,67C 290.122,65.2866 288.455,63.9533 286.5,63C 287.71,61.9609 288.71,60.7942 289.5,59.5 Z"/></g>
<g><path style="opacity:1" fill="#aeaeae" d="M 292.5,61.5 C 294.604,61.2011 296.604,61.5344 298.5,62.5C 297.307,64.3837 295.641,64.8837 293.5,64C 292.748,63.3292 292.414,62.4959 292.5,61.5 Z"/></g>
<g><path style="opacity:1" fill="#161616" d="M 198.5,58.5 C 202.192,57.9712 205.358,58.9712 208,61.5C 208.664,66.4964 206.498,68.3297 201.5,67C 199.503,64.5084 198.503,61.675 198.5,58.5 Z"/></g>
<g><path style="opacity:1" fill="#ebebeb" d="M 202.5,61.5 C 204.225,61.8425 204.725,62.8425 204,64.5C 202.961,63.7562 202.461,62.7562 202.5,61.5 Z"/></g>
<g><path style="opacity:1" fill="#181818" d="M 271.5,56.5 C 278.997,55.8038 280.997,58.6372 277.5,65C 270.887,66.8875 267.553,64.3875 267.5,57.5C 269.099,57.7678 270.432,57.4345 271.5,56.5 Z"/></g>
<g><path style="opacity:1" fill="#d6d6d6" d="M 271.5,59.5 C 272.833,59.5 274.167,59.5 275.5,59.5C 275.5,60.5 275.5,61.5 275.5,62.5C 273.027,62.9118 271.694,61.9118 271.5,59.5 Z"/></g>
<g><path style="opacity:1" fill="#121212" d="M 312.5,55.5 C 316.182,55.3347 319.848,55.5014 323.5,56C 326.265,58.9663 325.932,61.633 322.5,64C 316.625,64.2999 313.292,61.4665 312.5,55.5 Z"/></g>
<g><path style="opacity:1" fill="#dbdbdb" d="M 317.5,57.5 C 320.932,57.2479 321.932,58.5812 320.5,61.5C 318.712,60.7174 317.712,59.3841 317.5,57.5 Z"/></g>
<g><path style="opacity:1" fill="#181818" d="M 241.5,54.5 C 244.579,54.2601 247.579,54.5934 250.5,55.5C 251.847,61.9677 249.18,64.1344 242.5,62C 240.981,60.6487 239.648,59.1487 238.5,57.5C 239.77,56.7124 240.77,55.7124 241.5,54.5 Z"/></g>
<g><path style="opacity:1" fill="#c3c3c3" d="M 243.5,57.5 C 245.288,57.2148 246.955,57.5481 248.5,58.5C 246.203,61.2896 244.536,60.9563 243.5,57.5 Z"/></g>
<g><path style="opacity:1" fill="#1e1e1e" d="M 166.5,50.5 C 169.747,50.4152 172.581,51.4152 175,53.5C 175.567,58.1073 173.401,60.4407 168.5,60.5C 161.688,58.1103 161.022,54.777 166.5,50.5 Z"/></g>
<g><path style="opacity:1" fill="#ebebeb" d="M 166.5,55.5 C 168.364,54.2072 170.364,54.2072 172.5,55.5C 170.484,56.6942 168.484,56.6942 166.5,55.5 Z"/></g>
<g><path style="opacity:1" fill="#1c1c1c" d="M 261.5,43.5 C 268.067,43.2478 271.567,46.2478 272,52.5C 265.555,57.4743 261.388,55.9743 259.5,48C 259.519,46.167 260.185,44.667 261.5,43.5 Z"/></g>
<g><path style="opacity:1" fill="#ececec" d="M 263.5,46.5 C 267.485,46.6294 268.818,48.4628 267.5,52C 263.266,52.267 261.933,50.4336 263.5,46.5 Z"/></g>
<g><path style="opacity:1" fill="#111111" d="M 191.5,44.5 C 194.187,44.3359 196.854,44.5026 199.5,45C 202.272,49.6068 200.772,51.7735 195,51.5C 188.216,51.5975 187.049,49.2641 191.5,44.5 Z"/></g>
<g><path style="opacity:1" fill="#aeaeae" d="M 194.5,46.5 C 196.355,46.272 197.188,46.9387 197,48.5C 195.506,49.7472 194.006,49.7472 192.5,48.5C 193.243,47.8182 193.909,47.1515 194.5,46.5 Z"/></g>
<g><path style="opacity:1" fill="#181818" d="M 229.5,40.5 C 234.849,40.6564 236.849,43.1564 235.5,48C 229.768,50.4673 226.101,48.634 224.5,42.5C 226.291,41.8302 227.958,41.1635 229.5,40.5 Z"/></g>
<g><path style="opacity:1" fill="#d7d7d7" d="M 229.5,43.5 C 230.5,43.5 231.5,43.5 232.5,43.5C 231.754,47.31 230.754,47.31 229.5,43.5 Z"/></g>
<g><path style="opacity:0.206" fill="#f3f3f3" d="M 478.5,294.5 C 477.833,297.167 476.167,298.833 473.5,299.5C 474.833,297.5 476.5,295.833 478.5,294.5 Z"/></g>
<g><path style="opacity:0.412" fill="#c9c9c9" d="M 182.5,306.5 C 184.553,306.402 186.22,307.069 187.5,308.5C 185.447,308.598 183.78,307.931 182.5,306.5 Z"/></g>
<g><path style="opacity:0.282" fill="#b3b3b3" d="M 424.5,322.5 C 422.162,324.04 419.495,324.706 416.5,324.5C 418.905,323.232 421.572,322.565 424.5,322.5 Z"/></g>
</svg>
